<svg xmlns="http://www.w3.org/2000/svg" xmlns:xlink="http://www.w3.org/1999/xlink" width="800" zoomAndPan="magnify" viewBox="0 0 600 187.499995" height="250" preserveAspectRatio="xMidYMid meet" version="1.0"><defs><clipPath id="3db9ea21bc"><path d="M 0.796875 147 L 566.949219 147 L 566.949219 175.800781 L 0.796875 175.800781 Z M 0.796875 147 " clip-rule="nonzero"/></clipPath><clipPath id="db2927eb59"><path d="M 0.796875 102 L 566.949219 102 L 566.949219 131 L 0.796875 131 Z M 0.796875 102 " clip-rule="nonzero"/></clipPath><clipPath id="fb39b31098"><path d="M 0.796875 56 L 566.949219 56 L 566.949219 86 L 0.796875 86 Z M 0.796875 56 " clip-rule="nonzero"/></clipPath><clipPath id="469a904ca9"><path d="M 0.796875 11.242188 L 566.949219 11.242188 L 566.949219 40 L 0.796875 40 Z M 0.796875 11.242188 " clip-rule="nonzero"/></clipPath></defs><g clip-path="url(#3db9ea21bc)"><path fill="#47dfd1" d="M -1.378906 175.800781 L -1.378906 147.429688 L 566.046875 147.429688 L 566.046875 175.800781 Z M -1.378906 175.800781 " fill-opacity="1" fill-rule="nonzero"/></g><g clip-path="url(#db2927eb59)"><path fill="#992800" d="M -1.378906 130.371094 L -1.378906 102 L 566.046875 102 L 566.046875 130.371094 Z M -1.378906 130.371094 " fill-opacity="1" fill-rule="nonzero"/></g><g clip-path="url(#fb39b31098)"><path fill="#d34a24" d="M -1.378906 85.011719 L -1.378906 56.636719 L 566.046875 56.636719 L 566.046875 85.011719 Z M -1.378906 85.011719 " fill-opacity="1" fill-rule="nonzero"/></g><g clip-path="url(#469a904ca9)"><path fill="#ffaf00" d="M -1.378906 39.589844 L -1.378906 11.21875 L 566.046875 11.21875 L 566.046875 39.589844 Z M -1.378906 39.589844 " fill-opacity="1" fill-rule="nonzero"/></g></svg>