<svg xmlns="http://www.w3.org/2000/svg" xmlns:xlink="http://www.w3.org/1999/xlink" width="600" zoomAndPan="magnify" viewBox="0 0 450 74.999997" height="100" preserveAspectRatio="xMidYMid meet" version="1.0"><defs><g/></defs><path stroke-linecap="butt" transform="matrix(0.749416, 0.000489916, -0.000490298, 0.75, 0.000989594, 7.500002)" fill="none" stroke-linejoin="miter" d="M -0.000666249 0.999998 L 582.468288 0.999725 " stroke="#f4ddb5" stroke-width="2" stroke-opacity="1" stroke-miterlimit="4"/><g fill="#e9dcb7" fill-opacity="1"><g transform="translate(0.322203, 53.713164)"><g><path d="M 8.484375 -17.28125 L 8.109375 -17.328125 L 8.046875 -17.328125 C 7.742188 -17.328125 7.4375 -17.441406 7.125 -17.671875 C 6.820312 -17.910156 6.671875 -18.328125 6.671875 -18.921875 C 6.671875 -19.523438 6.992188 -20.207031 7.640625 -20.96875 C 8.296875 -21.738281 9.179688 -22.441406 10.296875 -23.078125 C 11.410156 -23.722656 12.800781 -24.25 14.46875 -24.65625 C 16.132812 -25.070312 17.890625 -25.28125 19.734375 -25.28125 C 23.503906 -25.28125 26.445312 -24.535156 28.5625 -23.046875 C 30.6875 -21.566406 31.75 -19.640625 31.75 -17.265625 C 31.75 -15.785156 31.421875 -14.300781 30.765625 -12.8125 C 30.109375 -11.332031 29.226562 -9.96875 28.125 -8.71875 C 27.019531 -7.46875 25.71875 -6.296875 24.21875 -5.203125 C 22.726562 -4.117188 21.164062 -3.195312 19.53125 -2.4375 C 16.007812 -0.8125 12.640625 0 9.421875 0 C 7.828125 0 6.828125 -0.128906 6.421875 -0.390625 C 6.265625 -0.472656 6.113281 -0.597656 5.96875 -0.765625 C 5.820312 -0.929688 5.707031 -1.046875 5.625 -1.109375 C 5.40625 -1.253906 5.296875 -1.554688 5.296875 -2.015625 C 5.296875 -2.484375 5.34375 -2.90625 5.4375 -3.28125 C 5.78125 -4.539062 7.359375 -7.269531 10.171875 -11.46875 C 12.992188 -15.664062 15.351562 -19.054688 17.25 -21.640625 C 17.375 -21.804688 18.035156 -21.929688 19.234375 -22.015625 C 19.722656 -22.015625 20.0625 -21.976562 20.25 -21.90625 C 20.445312 -21.84375 20.546875 -21.71875 20.546875 -21.53125 C 20.546875 -21.351562 20.238281 -20.835938 19.625 -19.984375 C 19.007812 -19.128906 17.046875 -16.148438 13.734375 -11.046875 C 10.421875 -5.941406 8.765625 -3.316406 8.765625 -3.171875 C 8.765625 -3.035156 9.285156 -2.96875 10.328125 -2.96875 C 11.367188 -2.96875 12.648438 -3.1875 14.171875 -3.625 C 15.691406 -4.0625 17.117188 -4.640625 18.453125 -5.359375 C 19.796875 -6.078125 21.078125 -6.910156 22.296875 -7.859375 C 23.523438 -8.804688 24.570312 -9.769531 25.4375 -10.75 C 27.34375 -12.914062 28.296875 -14.835938 28.296875 -16.515625 C 28.296875 -18.203125 27.53125 -19.628906 26 -20.796875 C 24.46875 -21.972656 22.363281 -22.5625 19.6875 -22.5625 C 17.894531 -22.5625 16.195312 -22.257812 14.59375 -21.65625 C 13 -21.0625 11.898438 -20.53125 11.296875 -20.0625 C 10.703125 -19.59375 10.40625 -19.273438 10.40625 -19.109375 C 10.40625 -19.015625 10.472656 -18.96875 10.609375 -18.96875 L 11.375 -19.109375 C 11.476562 -19.109375 11.53125 -19.082031 11.53125 -19.03125 C 11.53125 -18.988281 11.429688 -18.910156 11.234375 -18.796875 C 11.035156 -18.679688 10.875 -18.554688 10.75 -18.421875 C 10.625 -18.285156 10.3125 -18.066406 9.8125 -17.765625 C 9.320312 -17.460938 8.878906 -17.300781 8.484375 -17.28125 Z M 8.484375 -17.28125 "/></g></g><g transform="translate(28.658837, 53.713164)"><g><path d="M 6.859375 -9.609375 C 9.628906 -12.753906 11.992188 -14.328125 13.953125 -14.328125 C 14.429688 -14.328125 14.828125 -14.179688 15.140625 -13.890625 C 15.453125 -13.609375 15.609375 -13.238281 15.609375 -12.78125 C 15.609375 -12.320312 15.28125 -11.554688 14.625 -10.484375 C 13.96875 -9.410156 13.363281 -8.503906 12.8125 -7.765625 C 12.519531 -7.378906 12.1875 -7.1875 11.8125 -7.1875 C 11.445312 -7.1875 11.160156 -7.320312 10.953125 -7.59375 C 10.753906 -7.863281 10.65625 -8.179688 10.65625 -8.546875 C 10.65625 -9.359375 11.085938 -10.273438 11.953125 -11.296875 L 11.921875 -11.34375 C 11.535156 -11.300781 10.570312 -10.535156 9.03125 -9.046875 C 7.5 -7.554688 6.195312 -6.21875 5.125 -5.03125 C 4.050781 -3.851562 2.882812 -2.414062 1.625 -0.71875 C 1.257812 -0.21875 0.945312 0.03125 0.6875 0.03125 C 0.4375 0.03125 0.101562 -0.046875 -0.3125 -0.203125 C -0.726562 -0.359375 -0.976562 -0.472656 -1.0625 -0.546875 C -1.15625 -0.617188 -1.203125 -0.734375 -1.203125 -0.890625 C -1.203125 -1.054688 -1.15625 -1.25 -1.0625 -1.46875 C -0.96875 -1.6875 -0.789062 -1.992188 -0.53125 -2.390625 C -0.28125 -2.796875 0.0976562 -3.441406 0.609375 -4.328125 C 1.117188 -5.222656 1.914062 -6.578125 3 -8.390625 C 4.082031 -10.203125 4.726562 -11.296875 4.9375 -11.671875 C 5.382812 -12.441406 5.75 -13.003906 6.03125 -13.359375 C 6.5625 -14.035156 7.453125 -14.375 8.703125 -14.375 C 8.992188 -14.375 9.140625 -14.195312 9.140625 -13.84375 C 9.140625 -13.289062 8.625 -12.25 7.59375 -10.71875 Z M 6.859375 -9.609375 "/></g></g><g transform="translate(41.266611, 53.713164)"><g><path d="M 13.21875 -13.1875 C 13.21875 -12.414062 12.90625 -11.734375 12.28125 -11.140625 C 11.65625 -10.554688 10.941406 -10.265625 10.140625 -10.265625 C 9.878906 -10.265625 9.707031 -10.320312 9.625 -10.4375 C 9.539062 -10.5625 9.5 -10.722656 9.5 -10.921875 C 9.5 -11.128906 9.523438 -11.328125 9.578125 -11.515625 C 9.148438 -11.367188 8.675781 -11.148438 8.15625 -10.859375 C 7.644531 -10.566406 7.007812 -10.128906 6.25 -9.546875 C 5.5 -8.972656 5.125 -8.546875 5.125 -8.265625 C 5.125 -8.171875 5.257812 -8.125 5.53125 -8.125 C 5.8125 -8.125 6.238281 -8.21875 6.8125 -8.40625 C 7.394531 -8.601562 7.800781 -8.703125 8.03125 -8.703125 C 8.257812 -8.703125 8.410156 -8.691406 8.484375 -8.671875 C 8.628906 -8.585938 8.789062 -8.40625 8.96875 -8.125 C 9.144531 -7.851562 9.234375 -7.640625 9.234375 -7.484375 C 9.234375 -7.328125 9.082031 -7.117188 8.78125 -6.859375 C 8.476562 -6.597656 8.128906 -6.398438 7.734375 -6.265625 C 7.347656 -6.128906 7.09375 -6.023438 6.96875 -5.953125 C 4.488281 -4.566406 3.25 -3.617188 3.25 -3.109375 C 3.25 -2.191406 4.03125 -1.734375 5.59375 -1.734375 C 6.59375 -1.734375 7.597656 -2.050781 8.609375 -2.6875 C 9.460938 -3.21875 10.234375 -3.765625 10.921875 -4.328125 C 11.609375 -4.890625 12.039062 -5.234375 12.21875 -5.359375 C 12.40625 -5.484375 12.546875 -5.546875 12.640625 -5.546875 C 12.941406 -5.546875 13.09375 -5.207031 13.09375 -4.53125 C 13.09375 -3.851562 13.050781 -3.40625 12.96875 -3.1875 C 12.894531 -2.96875 12.660156 -2.695312 12.265625 -2.375 C 9.753906 -0.332031 7.375 0.6875 5.125 0.6875 C 3.925781 0.6875 2.96875 0.519531 2.25 0.1875 C 0.9375 -0.40625 0.28125 -1.320312 0.28125 -2.5625 C 0.28125 -4.175781 1.40625 -5.398438 3.65625 -6.234375 C 3.207031 -6.441406 2.914062 -6.695312 2.78125 -7 C 2.65625 -7.3125 2.59375 -7.8125 2.59375 -8.5 C 2.59375 -9.1875 2.910156 -9.914062 3.546875 -10.6875 C 4.191406 -11.457031 4.976562 -12.09375 5.90625 -12.59375 C 7.976562 -13.707031 9.820312 -14.265625 11.4375 -14.265625 C 11.832031 -14.265625 12.226562 -14.171875 12.625 -13.984375 C 13.019531 -13.796875 13.21875 -13.53125 13.21875 -13.1875 Z M 13.21875 -13.1875 "/></g></g><g transform="translate(52.728224, 53.713164)"><g><path d="M 14.546875 -13.40625 C 15.441406 -13.40625 15.890625 -13.097656 15.890625 -12.484375 C 15.890625 -12.148438 15.8125 -11.90625 15.65625 -11.75 C 15.5 -11.601562 15.171875 -11.097656 14.671875 -10.234375 C 14.171875 -9.367188 13.617188 -8.265625 13.015625 -6.921875 C 12.410156 -5.578125 12.019531 -4.425781 11.84375 -3.46875 C 11.8125 -3.351562 11.796875 -3.191406 11.796875 -2.984375 C 11.796875 -2.335938 11.972656 -2.015625 12.328125 -2.015625 C 12.679688 -2.015625 13.097656 -2.179688 13.578125 -2.515625 C 14.054688 -2.847656 14.484375 -3.203125 14.859375 -3.578125 C 15.234375 -3.960938 15.597656 -4.351562 15.953125 -4.75 C 16.316406 -5.15625 16.535156 -5.382812 16.609375 -5.4375 C 16.679688 -5.5 16.785156 -5.53125 16.921875 -5.53125 C 17.148438 -5.53125 17.285156 -5.359375 17.328125 -5.015625 C 17.378906 -4.679688 17.40625 -4.332031 17.40625 -3.96875 C 17.40625 -3.601562 17.367188 -3.347656 17.296875 -3.203125 C 16.953125 -2.535156 16.203125 -1.734375 15.046875 -0.796875 C 13.890625 0.140625 12.835938 0.609375 11.890625 0.609375 C 10.941406 0.609375 10.242188 0.320312 9.796875 -0.25 C 9.359375 -0.820312 9.140625 -1.457031 9.140625 -2.15625 C 9.140625 -2.851562 9.253906 -3.46875 9.484375 -4 C 8.503906 -2.726562 7.382812 -1.648438 6.125 -0.765625 C 4.863281 0.109375 3.832031 0.546875 3.03125 0.546875 C 2.226562 0.546875 1.578125 0.304688 1.078125 -0.171875 C 0.429688 -0.773438 0.109375 -1.609375 0.109375 -2.671875 C 0.109375 -3.734375 0.34375 -4.800781 0.8125 -5.875 C 1.289062 -6.957031 1.914062 -7.941406 2.6875 -8.828125 C 3.46875 -9.710938 4.320312 -10.519531 5.25 -11.25 C 7.207031 -12.78125 9.007812 -13.546875 10.65625 -13.546875 C 11.28125 -13.546875 11.789062 -13.4375 12.1875 -13.21875 C 12.59375 -13.007812 12.847656 -12.75 12.953125 -12.4375 C 13.234375 -12.851562 13.472656 -13.117188 13.671875 -13.234375 C 13.867188 -13.347656 14.160156 -13.40625 14.546875 -13.40625 Z M 12.203125 -11.4375 C 10.191406 -11.4375 8.109375 -10.320312 5.953125 -8.09375 C 5.191406 -7.289062 4.488281 -6.332031 3.84375 -5.21875 C 3.207031 -4.101562 2.890625 -3.335938 2.890625 -2.921875 C 2.890625 -2.515625 3.007812 -2.3125 3.25 -2.3125 C 3.570312 -2.3125 4.484375 -2.957031 5.984375 -4.25 C 7.492188 -5.550781 8.492188 -6.507812 8.984375 -7.125 C 9.523438 -7.800781 10.597656 -9.238281 12.203125 -11.4375 Z M 12.203125 -11.4375 "/></g></g><g transform="translate(67.434355, 53.713164)"><g><path d="M 1.09375 0.109375 L 0.234375 0.078125 L -0.09375 0.078125 C -0.207031 0.0351562 -0.332031 -0.0351562 -0.46875 -0.140625 C -0.601562 -0.242188 -0.703125 -0.316406 -0.765625 -0.359375 C -0.835938 -0.410156 -0.875 -0.5 -0.875 -0.625 C -0.875 -0.75 -0.828125 -0.960938 -0.734375 -1.265625 C 1.554688 -6.304688 3.769531 -10.335938 5.90625 -13.359375 C 6.144531 -13.691406 6.523438 -13.941406 7.046875 -14.109375 C 7.566406 -14.285156 8.070312 -14.375 8.5625 -14.375 C 8.863281 -14.375 9.015625 -14.144531 9.015625 -13.6875 C 9.015625 -13.550781 8.96875 -13.375 8.875 -13.15625 C 8.78125 -12.9375 8.539062 -12.582031 8.15625 -12.09375 C 7.78125 -11.601562 7.332031 -11.039062 6.8125 -10.40625 C 6.300781 -9.769531 6.007812 -9.40625 5.9375 -9.3125 C 7.550781 -10.976562 9.003906 -12.21875 10.296875 -13.03125 C 11.597656 -13.851562 12.539062 -14.265625 13.125 -14.265625 C 13.707031 -14.265625 14.15625 -14.097656 14.46875 -13.765625 C 14.78125 -13.429688 14.9375 -13.070312 14.9375 -12.6875 C 14.9375 -12.300781 14.910156 -11.984375 14.859375 -11.734375 C 14.804688 -11.484375 14.707031 -11.21875 14.5625 -10.9375 C 14.425781 -10.664062 14.304688 -10.429688 14.203125 -10.234375 C 14.097656 -10.035156 13.925781 -9.78125 13.6875 -9.46875 C 13.457031 -9.164062 13.296875 -8.953125 13.203125 -8.828125 C 13.117188 -8.710938 12.9375 -8.488281 12.65625 -8.15625 C 12.382812 -7.832031 12.238281 -7.648438 12.21875 -7.609375 C 12.550781 -7.941406 13.007812 -8.429688 13.59375 -9.078125 C 14.175781 -9.722656 14.671875 -10.265625 15.078125 -10.703125 C 15.484375 -11.140625 15.992188 -11.628906 16.609375 -12.171875 C 17.222656 -12.722656 17.789062 -13.164062 18.3125 -13.5 C 19.582031 -14.300781 20.875 -14.703125 22.1875 -14.703125 C 22.625 -14.703125 22.992188 -14.5625 23.296875 -14.28125 C 23.609375 -14 23.765625 -13.660156 23.765625 -13.265625 C 23.765625 -12.867188 23.285156 -11.925781 22.328125 -10.4375 C 21.378906 -8.957031 20.429688 -7.46875 19.484375 -5.96875 C 18.546875 -4.46875 18.078125 -3.523438 18.078125 -3.140625 C 18.078125 -2.597656 18.175781 -2.273438 18.375 -2.171875 C 18.570312 -2.078125 18.8125 -2.039062 19.09375 -2.0625 C 19.375 -2.082031 19.769531 -2.265625 20.28125 -2.609375 C 20.789062 -2.953125 21.25 -3.304688 21.65625 -3.671875 C 22.300781 -4.253906 22.898438 -4.820312 23.453125 -5.375 C 23.566406 -5.476562 23.695312 -5.53125 23.84375 -5.53125 C 24.0625 -5.53125 24.191406 -5.359375 24.234375 -5.015625 C 24.285156 -4.679688 24.3125 -4.332031 24.3125 -3.96875 C 24.3125 -3.601562 24.273438 -3.347656 24.203125 -3.203125 C 23.867188 -2.546875 23.117188 -1.738281 21.953125 -0.78125 C 20.785156 0.164062 19.664062 0.640625 18.59375 0.640625 C 18.46875 0.640625 18.375 0.628906 18.3125 0.609375 C 17.101562 0.492188 16.265625 0.164062 15.796875 -0.375 C 15.335938 -0.925781 15.109375 -1.578125 15.109375 -2.328125 C 15.109375 -3.078125 15.363281 -3.988281 15.875 -5.0625 C 16.382812 -6.132812 16.945312 -7.101562 17.5625 -7.96875 C 18.175781 -8.84375 18.738281 -9.628906 19.25 -10.328125 C 19.757812 -11.023438 20.015625 -11.398438 20.015625 -11.453125 C 20.015625 -11.515625 19.96875 -11.546875 19.875 -11.546875 C 19.507812 -11.546875 18.695312 -10.957031 17.4375 -9.78125 C 15.289062 -7.769531 13.429688 -5.832031 11.859375 -3.96875 C 11.453125 -3.476562 10.476562 -2.226562 8.9375 -0.21875 C 8.757812 0.0195312 8.476562 0.140625 8.09375 0.140625 C 7.71875 0.140625 7.320312 0.0664062 6.90625 -0.078125 C 6.5 -0.222656 6.296875 -0.414062 6.296875 -0.65625 C 6.296875 -0.769531 7.226562 -2.414062 9.09375 -5.59375 C 10.96875 -8.78125 11.90625 -10.515625 11.90625 -10.796875 C 11.90625 -11.085938 11.726562 -11.234375 11.375 -11.234375 C 11.03125 -11.234375 10.316406 -10.71875 9.234375 -9.6875 C 6.265625 -6.832031 3.960938 -4.003906 2.328125 -1.203125 C 2.222656 -1.035156 2.015625 -0.773438 1.703125 -0.421875 C 1.398438 -0.0664062 1.195312 0.109375 1.09375 0.109375 Z M 1.09375 0.109375 "/></g></g><g transform="translate(89.405386, 53.713164)"><g/></g><g transform="translate(96.899517, 53.713164)"><g><path d="M 18.671875 -5.78125 C 19.109375 -5.988281 19.71875 -6.25 20.5 -6.5625 C 21.28125 -6.875 21.773438 -7.03125 21.984375 -7.03125 C 22.140625 -7.03125 22.21875 -6.945312 22.21875 -6.78125 C 22.21875 -6.625 22.175781 -6.457031 22.09375 -6.28125 C 22.007812 -6.101562 21.921875 -5.945312 21.828125 -5.8125 C 21.742188 -5.6875 21.632812 -5.53125 21.5 -5.34375 L 21.234375 -4.984375 C 20.660156 -4.191406 19.847656 -3.53125 18.796875 -3 C 18.429688 -2.8125 17.90625 -2.5625 17.21875 -2.25 C 16.53125 -1.945312 16.050781 -1.726562 15.78125 -1.59375 L 14.84375 -0.171875 C 12.851562 2.765625 11.191406 4.96875 9.859375 6.4375 C 8.523438 7.90625 7.289062 8.96875 6.15625 9.625 C 5.019531 10.28125 3.703125 10.609375 2.203125 10.609375 C 1.472656 10.609375 0.921875 10.296875 0.546875 9.671875 C 0.179688 9.046875 0 8.335938 0 7.546875 C 0 6.765625 0.242188 5.957031 0.734375 5.125 C 1.222656 4.289062 1.894531 3.492188 2.75 2.734375 C 3.601562 1.984375 4.5 1.269531 5.4375 0.59375 C 6.382812 -0.0820312 7.425781 -0.738281 8.5625 -1.375 C 10.414062 -2.375 12.210938 -3.273438 13.953125 -4.078125 C 18.222656 -10.367188 22.5625 -16.472656 26.96875 -22.390625 C 27.070312 -22.484375 27.125 -22.550781 27.125 -22.59375 C 27.125 -22.644531 26.945312 -22.671875 26.59375 -22.671875 C 26.238281 -22.671875 25.445312 -22.554688 24.21875 -22.328125 C 21.550781 -21.785156 18.898438 -20.804688 16.265625 -19.390625 C 13.640625 -17.972656 11.382812 -16.347656 9.5 -14.515625 C 7.625 -12.691406 6.6875 -11.207031 6.6875 -10.0625 C 6.6875 -9.488281 6.929688 -9.015625 7.421875 -8.640625 C 7.910156 -8.273438 8.441406 -8.09375 9.015625 -8.09375 C 9.585938 -8.09375 10.175781 -8.234375 10.78125 -8.515625 C 11.382812 -8.804688 11.882812 -9.097656 12.28125 -9.390625 C 12.6875 -9.679688 12.914062 -9.828125 12.96875 -9.828125 C 13.03125 -9.828125 13.0625 -9.742188 13.0625 -9.578125 C 13.0625 -8.710938 12.832031 -7.972656 12.375 -7.359375 C 11.925781 -6.742188 11.300781 -6.28125 10.5 -5.96875 C 9.707031 -5.664062 8.941406 -5.515625 8.203125 -5.515625 C 7.472656 -5.515625 6.722656 -5.664062 5.953125 -5.96875 C 5.191406 -6.28125 4.539062 -6.757812 4 -7.40625 C 3.46875 -8.050781 3.203125 -8.785156 3.203125 -9.609375 C 3.203125 -9.960938 3.28125 -10.378906 3.4375 -10.859375 C 4.601562 -14.640625 8.40625 -18.289062 14.84375 -21.8125 C 17.050781 -23.007812 19.519531 -23.972656 22.25 -24.703125 C 24.988281 -25.441406 27.578125 -25.8125 30.015625 -25.8125 C 30.453125 -25.8125 30.835938 -25.671875 31.171875 -25.390625 C 31.503906 -25.109375 31.671875 -24.804688 31.671875 -24.484375 C 31.671875 -24.171875 31.644531 -23.945312 31.59375 -23.8125 C 31.550781 -23.6875 31.335938 -23.351562 30.953125 -22.8125 C 30.578125 -22.269531 30.195312 -21.75 29.8125 -21.25 C 28.738281 -19.863281 27.828125 -18.671875 27.078125 -17.671875 C 26.328125 -16.671875 23.523438 -12.707031 18.671875 -5.78125 Z M 11.203125 0.109375 C 5.410156 3.691406 2.515625 6.085938 2.515625 7.296875 C 2.515625 7.554688 2.71875 7.6875 3.125 7.6875 C 3.53125 7.6875 4.0625 7.476562 4.71875 7.0625 C 5.382812 6.65625 6.003906 6.175781 6.578125 5.625 C 7.160156 5.070312 7.785156 4.40625 8.453125 3.625 C 9.398438 2.5 10.316406 1.328125 11.203125 0.109375 Z M 11.203125 0.109375 "/></g></g><g transform="translate(120.069609, 53.713164)"><g><path d="M 13.0625 -13.4375 C 13.414062 -13.4375 13.773438 -13.273438 14.140625 -12.953125 C 14.515625 -12.640625 14.703125 -12.15625 14.703125 -11.5 C 14.703125 -10.851562 14.472656 -10.007812 14.015625 -8.96875 C 13.554688 -7.925781 12.925781 -6.863281 12.125 -5.78125 C 11.332031 -4.707031 10.457031 -3.695312 9.5 -2.75 C 8.539062 -1.8125 7.503906 -1.039062 6.390625 -0.4375 C 5.273438 0.164062 4.265625 0.46875 3.359375 0.46875 C 2.460938 0.46875 1.738281 0.1875 1.1875 -0.375 C 0.644531 -0.945312 0.375 -1.738281 0.375 -2.75 C 0.375 -3.769531 0.625 -4.894531 1.125 -6.125 C 1.625 -7.363281 2.265625 -8.457031 3.046875 -9.40625 C 3.835938 -10.351562 4.691406 -11.203125 5.609375 -11.953125 C 7.523438 -13.492188 9.207031 -14.265625 10.65625 -14.265625 C 11.300781 -14.265625 11.785156 -14.101562 12.109375 -13.78125 C 12.234375 -13.675781 12.296875 -13.582031 12.296875 -13.5 L 12.296875 -13.40625 C 12.453125 -13.425781 12.707031 -13.4375 13.0625 -13.4375 Z M 11.28125 -11.09375 L 11.15625 -11.09375 C 10.75 -11.09375 10.546875 -11.390625 10.546875 -11.984375 C 9.679688 -11.703125 8.78125 -11.207031 7.84375 -10.5 C 6.90625 -9.800781 6.066406 -8.96875 5.328125 -8 C 3.816406 -6.070312 3.050781 -4.445312 3.03125 -3.125 C 3.03125 -2.46875 3.269531 -2.140625 3.75 -2.140625 C 4.238281 -2.140625 4.957031 -2.453125 5.90625 -3.078125 C 6.851562 -3.710938 7.796875 -4.617188 8.734375 -5.796875 C 9.671875 -6.972656 10.367188 -7.992188 10.828125 -8.859375 C 11.296875 -9.722656 11.53125 -10.3125 11.53125 -10.625 C 11.53125 -10.9375 11.445312 -11.09375 11.28125 -11.09375 Z M 11.28125 -11.09375 "/></g></g><g transform="translate(133.294547, 53.713164)"><g><path d="M 16.03125 -5.53125 C 16.25 -5.53125 16.378906 -5.359375 16.421875 -5.015625 C 16.472656 -4.679688 16.5 -4.332031 16.5 -3.96875 C 16.5 -3.601562 16.460938 -3.347656 16.390625 -3.203125 C 16.054688 -2.546875 15.3125 -1.742188 14.15625 -0.796875 C 13.007812 0.140625 11.914062 0.609375 10.875 0.609375 C 10.238281 0.609375 9.648438 0.414062 9.109375 0.03125 C 8.566406 -0.34375 8.296875 -1.003906 8.296875 -1.953125 C 8.296875 -2.910156 8.550781 -3.847656 9.0625 -4.765625 C 6.144531 -1.109375 3.859375 0.71875 2.203125 0.71875 C 1.546875 0.71875 1.015625 0.484375 0.609375 0.015625 C 0.203125 -0.453125 0 -0.9375 0 -1.4375 C 0 -1.9375 0.0664062 -2.453125 0.203125 -2.984375 C 0.347656 -3.523438 0.5 -4.003906 0.65625 -4.421875 C 0.820312 -4.847656 1.054688 -5.367188 1.359375 -5.984375 C 1.671875 -6.609375 1.90625 -7.0625 2.0625 -7.34375 C 2.21875 -7.632812 2.460938 -8.0625 2.796875 -8.625 C 3.128906 -9.195312 3.566406 -9.960938 4.109375 -10.921875 C 4.660156 -11.890625 5.113281 -12.601562 5.46875 -13.0625 C 5.832031 -13.53125 6.179688 -13.765625 6.515625 -13.765625 C 6.859375 -13.773438 7.160156 -13.640625 7.421875 -13.359375 C 7.679688 -13.078125 7.8125 -12.847656 7.8125 -12.671875 C 7.8125 -12.492188 7.414062 -11.703125 6.625 -10.296875 C 4.300781 -6.085938 3.140625 -3.632812 3.140625 -2.9375 C 3.140625 -2.769531 3.203125 -2.6875 3.328125 -2.6875 C 3.890625 -2.6875 5.289062 -3.90625 7.53125 -6.34375 C 9.78125 -8.789062 11.082031 -10.359375 11.4375 -11.046875 C 11.789062 -11.734375 12.132812 -12.3125 12.46875 -12.78125 C 12.8125 -13.25 13.0625 -13.535156 13.21875 -13.640625 C 13.726562 -13.972656 14.382812 -14.148438 15.1875 -14.171875 C 15.3125 -14.171875 15.410156 -14.164062 15.484375 -14.15625 C 15.554688 -14.144531 15.640625 -14.046875 15.734375 -13.859375 C 15.828125 -13.671875 15.875 -13.523438 15.875 -13.421875 C 15.757812 -13.085938 15.285156 -12.207031 14.453125 -10.78125 C 13.628906 -9.363281 13.171875 -8.5625 13.078125 -8.375 C 11.691406 -5.507812 11 -3.640625 11 -2.765625 C 11 -2.273438 11.1875 -2.03125 11.5625 -2.03125 C 12.25 -2.125 13.070312 -2.671875 14.03125 -3.671875 C 14.382812 -4.035156 14.734375 -4.40625 15.078125 -4.78125 C 15.429688 -5.15625 15.644531 -5.375 15.71875 -5.4375 C 15.800781 -5.5 15.90625 -5.53125 16.03125 -5.53125 Z M 16.03125 -5.53125 "/></g></g><g transform="translate(147.57748, 53.713164)"><g><path d="M 6.859375 -9.609375 C 9.628906 -12.753906 11.992188 -14.328125 13.953125 -14.328125 C 14.429688 -14.328125 14.828125 -14.179688 15.140625 -13.890625 C 15.453125 -13.609375 15.609375 -13.238281 15.609375 -12.78125 C 15.609375 -12.320312 15.28125 -11.554688 14.625 -10.484375 C 13.96875 -9.410156 13.363281 -8.503906 12.8125 -7.765625 C 12.519531 -7.378906 12.1875 -7.1875 11.8125 -7.1875 C 11.445312 -7.1875 11.160156 -7.320312 10.953125 -7.59375 C 10.753906 -7.863281 10.65625 -8.179688 10.65625 -8.546875 C 10.65625 -9.359375 11.085938 -10.273438 11.953125 -11.296875 L 11.921875 -11.34375 C 11.535156 -11.300781 10.570312 -10.535156 9.03125 -9.046875 C 7.5 -7.554688 6.195312 -6.21875 5.125 -5.03125 C 4.050781 -3.851562 2.882812 -2.414062 1.625 -0.71875 C 1.257812 -0.21875 0.945312 0.03125 0.6875 0.03125 C 0.4375 0.03125 0.101562 -0.046875 -0.3125 -0.203125 C -0.726562 -0.359375 -0.976562 -0.472656 -1.0625 -0.546875 C -1.15625 -0.617188 -1.203125 -0.734375 -1.203125 -0.890625 C -1.203125 -1.054688 -1.15625 -1.25 -1.0625 -1.46875 C -0.96875 -1.6875 -0.789062 -1.992188 -0.53125 -2.390625 C -0.28125 -2.796875 0.0976562 -3.441406 0.609375 -4.328125 C 1.117188 -5.222656 1.914062 -6.578125 3 -8.390625 C 4.082031 -10.203125 4.726562 -11.296875 4.9375 -11.671875 C 5.382812 -12.441406 5.75 -13.003906 6.03125 -13.359375 C 6.5625 -14.035156 7.453125 -14.375 8.703125 -14.375 C 8.992188 -14.375 9.140625 -14.195312 9.140625 -13.84375 C 9.140625 -13.289062 8.625 -12.25 7.59375 -10.71875 Z M 6.859375 -9.609375 "/></g></g><g transform="translate(160.185254, 53.713164)"><g><path d="M 10.296875 -2.71875 C 10.296875 -2.195312 10.648438 -1.9375 11.359375 -1.9375 C 11.734375 -1.9375 12.203125 -2.125 12.765625 -2.5 C 13.335938 -2.875 13.851562 -3.285156 14.3125 -3.734375 C 15.539062 -4.941406 16.234375 -5.546875 16.390625 -5.546875 C 16.703125 -5.546875 16.859375 -5.101562 16.859375 -4.21875 C 16.859375 -3.34375 16.582031 -2.742188 16.03125 -2.421875 C 14.34375 -0.898438 13.039062 0.0234375 12.125 0.359375 C 11.613281 0.523438 11.046875 0.601562 10.421875 0.59375 C 9.796875 0.582031 9.175781 0.316406 8.5625 -0.203125 C 7.957031 -0.734375 7.65625 -1.378906 7.65625 -2.140625 C 7.65625 -2.898438 7.851562 -3.757812 8.25 -4.71875 C 8.644531 -5.6875 9.050781 -6.515625 9.46875 -7.203125 C 9.894531 -7.890625 10.410156 -8.6875 11.015625 -9.59375 C 11.628906 -10.507812 11.953125 -11.078125 11.984375 -11.296875 L 11.953125 -11.34375 C 11.566406 -11.300781 10.601562 -10.535156 9.0625 -9.046875 C 7.53125 -7.554688 6.265625 -6.253906 5.265625 -5.140625 C 4.265625 -4.035156 3.070312 -2.5625 1.6875 -0.71875 C 1.300781 -0.21875 0.984375 0.03125 0.734375 0.03125 C 0.492188 0.03125 0.164062 -0.046875 -0.25 -0.203125 C -0.664062 -0.359375 -0.921875 -0.472656 -1.015625 -0.546875 C -1.109375 -0.617188 -1.15625 -0.722656 -1.15625 -0.859375 C -1.15625 -1.003906 -1.113281 -1.175781 -1.03125 -1.375 C -0.957031 -1.582031 -0.878906 -1.753906 -0.796875 -1.890625 C -0.722656 -2.023438 -0.597656 -2.234375 -0.421875 -2.515625 C -0.242188 -2.796875 0.101562 -3.390625 0.625 -4.296875 C 1.144531 -5.210938 1.945312 -6.578125 3.03125 -8.390625 C 4.113281 -10.203125 4.757812 -11.296875 4.96875 -11.671875 C 5.414062 -12.441406 5.78125 -13.003906 6.0625 -13.359375 C 6.59375 -14.035156 7.488281 -14.375 8.75 -14.375 C 9.03125 -14.375 9.171875 -14.195312 9.171875 -13.84375 C 9.171875 -13.289062 8.660156 -12.25 7.640625 -10.71875 L 6.890625 -9.609375 C 8.921875 -11.867188 10.640625 -13.296875 12.046875 -13.890625 C 12.722656 -14.179688 13.332031 -14.328125 13.875 -14.328125 C 14.425781 -14.328125 14.863281 -14.179688 15.1875 -13.890625 C 15.507812 -13.597656 15.671875 -13.269531 15.671875 -12.90625 C 15.671875 -12.550781 15.546875 -12.125 15.296875 -11.625 C 15.054688 -11.125 14.804688 -10.675781 14.546875 -10.28125 C 14.296875 -9.894531 13.960938 -9.398438 13.546875 -8.796875 C 13.140625 -8.203125 12.914062 -7.875 12.875 -7.8125 C 12.84375 -7.757812 12.753906 -7.617188 12.609375 -7.390625 C 12.460938 -7.160156 12.351562 -6.992188 12.28125 -6.890625 C 12.21875 -6.785156 12.101562 -6.597656 11.9375 -6.328125 C 11.769531 -6.066406 11.632812 -5.847656 11.53125 -5.671875 C 11.4375 -5.492188 11.316406 -5.273438 11.171875 -5.015625 C 11.023438 -4.765625 10.90625 -4.546875 10.8125 -4.359375 C 10.726562 -4.171875 10.640625 -3.960938 10.546875 -3.734375 C 10.378906 -3.328125 10.296875 -2.988281 10.296875 -2.71875 Z M 10.296875 -2.71875 "/></g></g><g transform="translate(174.291855, 53.713164)"><g><path d="M 14.546875 -13.40625 C 15.441406 -13.40625 15.890625 -13.097656 15.890625 -12.484375 C 15.890625 -12.148438 15.8125 -11.90625 15.65625 -11.75 C 15.5 -11.601562 15.171875 -11.097656 14.671875 -10.234375 C 14.171875 -9.367188 13.617188 -8.265625 13.015625 -6.921875 C 12.410156 -5.578125 12.019531 -4.425781 11.84375 -3.46875 C 11.8125 -3.351562 11.796875 -3.191406 11.796875 -2.984375 C 11.796875 -2.335938 11.972656 -2.015625 12.328125 -2.015625 C 12.679688 -2.015625 13.097656 -2.179688 13.578125 -2.515625 C 14.054688 -2.847656 14.484375 -3.203125 14.859375 -3.578125 C 15.234375 -3.960938 15.597656 -4.351562 15.953125 -4.75 C 16.316406 -5.15625 16.535156 -5.382812 16.609375 -5.4375 C 16.679688 -5.5 16.785156 -5.53125 16.921875 -5.53125 C 17.148438 -5.53125 17.285156 -5.359375 17.328125 -5.015625 C 17.378906 -4.679688 17.40625 -4.332031 17.40625 -3.96875 C 17.40625 -3.601562 17.367188 -3.347656 17.296875 -3.203125 C 16.953125 -2.535156 16.203125 -1.734375 15.046875 -0.796875 C 13.890625 0.140625 12.835938 0.609375 11.890625 0.609375 C 10.941406 0.609375 10.242188 0.320312 9.796875 -0.25 C 9.359375 -0.820312 9.140625 -1.457031 9.140625 -2.15625 C 9.140625 -2.851562 9.253906 -3.46875 9.484375 -4 C 8.503906 -2.726562 7.382812 -1.648438 6.125 -0.765625 C 4.863281 0.109375 3.832031 0.546875 3.03125 0.546875 C 2.226562 0.546875 1.578125 0.304688 1.078125 -0.171875 C 0.429688 -0.773438 0.109375 -1.609375 0.109375 -2.671875 C 0.109375 -3.734375 0.34375 -4.800781 0.8125 -5.875 C 1.289062 -6.957031 1.914062 -7.941406 2.6875 -8.828125 C 3.46875 -9.710938 4.320312 -10.519531 5.25 -11.25 C 7.207031 -12.78125 9.007812 -13.546875 10.65625 -13.546875 C 11.28125 -13.546875 11.789062 -13.4375 12.1875 -13.21875 C 12.59375 -13.007812 12.847656 -12.75 12.953125 -12.4375 C 13.234375 -12.851562 13.472656 -13.117188 13.671875 -13.234375 C 13.867188 -13.347656 14.160156 -13.40625 14.546875 -13.40625 Z M 12.203125 -11.4375 C 10.191406 -11.4375 8.109375 -10.320312 5.953125 -8.09375 C 5.191406 -7.289062 4.488281 -6.332031 3.84375 -5.21875 C 3.207031 -4.101562 2.890625 -3.335938 2.890625 -2.921875 C 2.890625 -2.515625 3.007812 -2.3125 3.25 -2.3125 C 3.570312 -2.3125 4.484375 -2.957031 5.984375 -4.25 C 7.492188 -5.550781 8.492188 -6.507812 8.984375 -7.125 C 9.523438 -7.800781 10.597656 -9.238281 12.203125 -11.4375 Z M 12.203125 -11.4375 "/></g></g><g transform="translate(188.997986, 53.713164)"><g><path d="M 15.703125 -26.46875 C 16.273438 -26.46875 16.773438 -26.296875 17.203125 -25.953125 C 17.628906 -25.617188 17.84375 -25.125 17.84375 -24.46875 C 17.84375 -23.8125 17.476562 -22.78125 16.75 -21.375 C 16.019531 -19.96875 15.144531 -18.53125 14.125 -17.0625 C 13.101562 -15.601562 11.945312 -14.050781 10.65625 -12.40625 C 8.601562 -9.800781 6.640625 -7.457031 4.765625 -5.375 C 4.753906 -5.238281 4.703125 -4.976562 4.609375 -4.59375 C 4.523438 -4.207031 4.484375 -3.820312 4.484375 -3.4375 C 4.484375 -3.050781 4.660156 -2.703125 5.015625 -2.390625 C 5.367188 -2.078125 5.8125 -1.921875 6.34375 -1.921875 C 6.875 -1.921875 7.441406 -2.109375 8.046875 -2.484375 C 8.648438 -2.859375 9.175781 -3.273438 9.625 -3.734375 C 10.800781 -4.941406 11.53125 -5.546875 11.8125 -5.546875 C 12.09375 -5.546875 12.234375 -5.117188 12.234375 -4.265625 L 12.234375 -3.921875 C 12.234375 -3.460938 12.148438 -3.125 11.984375 -2.90625 C 11.003906 -1.695312 9.894531 -0.796875 8.65625 -0.203125 C 7.425781 0.390625 6.253906 0.6875 5.140625 0.6875 C 4.035156 0.6875 3.195312 0.347656 2.625 -0.328125 C 2.050781 -1.003906 1.765625 -1.929688 1.765625 -3.109375 C 1.765625 -5.398438 2.378906 -8.09375 3.609375 -11.1875 C 4.835938 -14.28125 6.222656 -16.914062 7.765625 -19.09375 C 11.222656 -24.007812 13.867188 -26.46875 15.703125 -26.46875 Z M 14.921875 -23.53125 C 14.921875 -23.707031 14.859375 -23.796875 14.734375 -23.796875 C 14.328125 -23.796875 13.25 -22.617188 11.5 -20.265625 C 9.75 -17.921875 8.484375 -16.046875 7.703125 -14.640625 C 6.921875 -13.242188 6.179688 -11.488281 5.484375 -9.375 C 6.867188 -11.019531 8.785156 -13.582031 11.234375 -17.0625 C 13.691406 -20.550781 14.921875 -22.707031 14.921875 -23.53125 Z M 14.921875 -23.53125 "/></g></g></g></svg>