<svg xmlns="http://www.w3.org/2000/svg" xmlns:xlink="http://www.w3.org/1999/xlink" width="500" zoomAndPan="magnify" viewBox="0 0 375 225" height="300" preserveAspectRatio="xMidYMid meet" version="1.0"><defs><g/></defs><g fill="#ffaf00" fill-opacity="1"><g transform="translate(13.547375, 99.927244)"><g><path d="M 5.1875 0 L 5.1875 -50.5 L 14.4375 -50.5 L 14.4375 0 Z M 5.1875 0 "/></g></g></g><g fill="#ffaf00" fill-opacity="1"><g transform="translate(36.734031, 99.927244)"><g><path d="M 38.40625 -50.5 L 47.296875 -50.5 L 47.296875 0 L 39.1875 0 L 14.078125 -35.203125 L 14.078125 0 L 5.1875 0 L 5.1875 -50.5 L 13.296875 -50.5 L 38.40625 -15.296875 Z M 38.40625 -50.5 "/></g></g></g><g fill="#ffaf00" fill-opacity="1"><g transform="translate(92.780298, 99.927244)"><g><path d="M 38.40625 -50.5 L 47.296875 -50.5 L 47.296875 0 L 39.1875 0 L 14.078125 -35.203125 L 14.078125 0 L 5.1875 0 L 5.1875 -50.5 L 13.296875 -50.5 L 38.40625 -15.296875 Z M 38.40625 -50.5 "/></g></g></g><g fill="#ffaf00" fill-opacity="1"><g transform="translate(148.826565, 99.927244)"><g><path d="M 37.703125 -42.53125 L 14.21875 -42.53125 L 14.21875 -29.515625 L 36.5625 -29.515625 L 36.5625 -21.546875 L 14.21875 -21.546875 L 14.21875 -7.96875 L 38.546875 -7.96875 L 37.90625 0 L 5.1875 0 L 5.1875 -50.5 L 37.703125 -50.5 Z M 37.703125 -42.53125 "/></g></g></g><g fill="#ffaf00" fill-opacity="1"><g transform="translate(192.568262, 99.927244)"><g><path d="M 45.09375 -8.8125 L 47.234375 -1.640625 C 46.273438 -0.921875 45.109375 -0.363281 43.734375 0.03125 C 42.359375 0.4375 40.914062 0.640625 39.40625 0.640625 C 34.09375 0.640625 29.921875 -1.707031 26.890625 -6.40625 L 19.5625 -17.640625 C 18.800781 -18.828125 18.015625 -19.65625 17.203125 -20.125 C 16.398438 -20.601562 15.523438 -20.84375 14.578125 -20.84375 L 14.21875 -20.84375 L 14.21875 0 L 5.1875 0 L 5.1875 -50.5 L 20.90625 -50.5 C 27.3125 -50.5 32.160156 -49.171875 35.453125 -46.515625 C 38.753906 -43.859375 40.40625 -40.207031 40.40625 -35.5625 C 40.40625 -32.757812 39.785156 -30.351562 38.546875 -28.34375 C 37.316406 -26.332031 35.632812 -24.734375 33.5 -23.546875 C 31.363281 -22.359375 28.945312 -21.597656 26.25 -21.265625 C 27.664062 -20.503906 28.96875 -19.222656 30.15625 -17.421875 L 34.140625 -11.515625 C 35.179688 -10.003906 36.164062 -8.960938 37.09375 -8.390625 C 38.019531 -7.828125 39.191406 -7.546875 40.609375 -7.546875 C 42.273438 -7.546875 43.769531 -7.96875 45.09375 -8.8125 Z M 20.265625 -42.953125 L 14.21875 -42.953125 L 14.21875 -28.09375 L 19.84375 -28.09375 C 23.726562 -28.09375 26.59375 -28.6875 28.4375 -29.875 C 30.289062 -31.0625 31.21875 -32.957031 31.21875 -35.5625 C 31.21875 -40.488281 27.566406 -42.953125 20.265625 -42.953125 Z M 20.265625 -42.953125 "/></g></g></g><g fill="#ffaf00" fill-opacity="1"><g transform="translate(240.716202, 99.927244)"><g/></g></g><g fill="#47dfd1" fill-opacity="1"><g transform="translate(16.142398, 172.346065)"><g><path d="M 68.671875 -56.828125 L 78.59375 -56.828125 L 62.109375 0 L 50.265625 0 L 39.9375 -43.375 L 27.609375 0 L 15.6875 0 L 1.59375 -56.828125 L 12.078125 -56.828125 L 22.328125 -13.359375 L 34.5 -56.828125 L 46.578125 -56.828125 L 56.734375 -13.609375 Z M 68.671875 -56.828125 "/></g></g></g><g fill="#47dfd1" fill-opacity="1"><g transform="translate(94.885449, 172.346065)"><g><path d="M 31.125 0.71875 C 25.363281 0.769531 20.425781 -0.304688 16.3125 -2.515625 C 12.207031 -4.734375 9.0625 -7.945312 6.875 -12.15625 C 4.6875 -16.375 3.59375 -21.445312 3.59375 -27.375 C 3.59375 -33.289062 4.765625 -38.53125 7.109375 -43.09375 C 9.460938 -47.65625 12.785156 -51.21875 17.078125 -53.78125 C 21.378906 -56.34375 26.460938 -57.625 32.328125 -57.625 C 37.554688 -57.625 42.144531 -56.445312 46.09375 -54.09375 C 50.039062 -51.75 53.109375 -48.484375 55.296875 -44.296875 C 57.484375 -40.109375 58.578125 -35.1875 58.578125 -29.53125 C 58.578125 -23.394531 57.390625 -18.070312 55.015625 -13.5625 C 52.640625 -9.050781 49.382812 -5.539062 45.25 -3.03125 C 41.125 -0.53125 36.414062 0.71875 31.125 0.71875 Z M 30.8125 -8.640625 C 34.175781 -8.640625 37.148438 -9.46875 39.734375 -11.125 C 42.316406 -12.78125 44.34375 -15.15625 45.8125 -18.25 C 47.28125 -21.34375 48.015625 -25.101562 48.015625 -29.53125 C 48.015625 -35.238281 46.570312 -39.800781 43.6875 -43.21875 C 40.8125 -46.632812 36.945312 -48.34375 32.09375 -48.34375 C 28.625 -48.34375 25.539062 -47.460938 22.84375 -45.703125 C 20.15625 -43.941406 18.035156 -41.507812 16.484375 -38.40625 C 14.941406 -35.3125 14.171875 -31.6875 14.171875 -27.53125 C 14.171875 -21.5 15.648438 -16.84375 18.609375 -13.5625 C 21.566406 -10.28125 25.632812 -8.640625 30.8125 -8.640625 Z M 30.8125 -8.640625 "/></g></g></g><g fill="#47dfd1" fill-opacity="1"><g transform="translate(157.063645, 172.346065)"><g><path d="M 50.734375 -9.921875 L 53.140625 -1.84375 C 52.078125 -1.039062 50.769531 -0.414062 49.21875 0.03125 C 47.664062 0.488281 46.039062 0.71875 44.34375 0.71875 C 38.363281 0.71875 33.664062 -1.921875 30.25 -7.203125 L 22.015625 -19.84375 C 21.160156 -21.175781 20.273438 -22.109375 19.359375 -22.640625 C 18.453125 -23.179688 17.46875 -23.453125 16.40625 -23.453125 L 16 -23.453125 L 16 0 L 5.84375 0 L 5.84375 -56.828125 L 23.53125 -56.828125 C 30.726562 -56.828125 36.179688 -55.332031 39.890625 -52.34375 C 43.597656 -49.351562 45.453125 -45.242188 45.453125 -40.015625 C 45.453125 -36.867188 44.757812 -34.160156 43.375 -31.890625 C 41.988281 -29.617188 40.09375 -27.816406 37.6875 -26.484375 C 35.289062 -25.148438 32.570312 -24.296875 29.53125 -23.921875 C 31.132812 -23.078125 32.601562 -21.640625 33.9375 -19.609375 L 38.421875 -12.96875 C 39.585938 -11.257812 40.691406 -10.082031 41.734375 -9.4375 C 42.773438 -8.800781 44.097656 -8.484375 45.703125 -8.484375 C 47.566406 -8.484375 49.242188 -8.960938 50.734375 -9.921875 Z M 22.8125 -48.34375 L 16 -48.34375 L 16 -31.609375 L 22.328125 -31.609375 C 26.703125 -31.609375 29.929688 -32.273438 32.015625 -33.609375 C 34.097656 -34.941406 35.140625 -37.078125 35.140625 -40.015625 C 35.140625 -45.566406 31.03125 -48.34375 22.8125 -48.34375 Z M 22.8125 -48.34375 "/></g></g></g><g fill="#47dfd1" fill-opacity="1"><g transform="translate(207.23833, 172.346065)"><g><path d="M 5.84375 0 L 5.84375 -56.828125 L 16.25 -56.828125 L 16.25 -9.125 L 41.53125 -9.125 L 40.8125 0 Z M 5.84375 0 "/></g></g></g><g fill="#47dfd1" fill-opacity="1"><g transform="translate(248.370362, 172.346065)"><g><path d="M 5.84375 0 L 5.84375 -56.828125 L 22.734375 -56.828125 C 33.773438 -56.828125 42.125 -54.453125 47.78125 -49.703125 C 53.4375 -44.953125 56.265625 -37.9375 56.265625 -28.65625 C 56.265625 -22.882812 55.007812 -17.851562 52.5 -13.5625 C 49.988281 -9.269531 46.4375 -5.9375 41.84375 -3.5625 C 37.257812 -1.1875 31.875 0 25.6875 0 Z M 16.25 -9.203125 L 25.296875 -9.203125 C 31.960938 -9.203125 37.03125 -10.816406 40.5 -14.046875 C 43.96875 -17.273438 45.703125 -22.007812 45.703125 -28.25 C 45.703125 -34.757812 43.925781 -39.613281 40.375 -42.8125 C 36.820312 -46.019531 31.394531 -47.625 24.09375 -47.625 L 16.25 -47.625 Z M 16.25 -9.203125 "/></g></g></g><g fill="#47dfd1" fill-opacity="1"><g transform="translate(308.227891, 172.346065)"><g><path d="M 23.53125 0.71875 C 16.863281 0.71875 11.660156 -0.773438 7.921875 -3.765625 C 4.191406 -6.753906 2.054688 -11.128906 1.515625 -16.890625 L 11.28125 -18.328125 C 12.238281 -11.492188 16.484375 -8.078125 24.015625 -8.078125 C 27.265625 -8.078125 29.796875 -8.726562 31.609375 -10.03125 C 33.421875 -11.34375 34.328125 -13.175781 34.328125 -15.53125 C 34.328125 -17.664062 33.421875 -19.28125 31.609375 -20.375 C 29.796875 -21.46875 26.890625 -22.492188 22.890625 -23.453125 C 19.148438 -24.359375 15.945312 -25.4375 13.28125 -26.6875 C 10.613281 -27.945312 8.570312 -29.640625 7.15625 -31.765625 C 5.75 -33.898438 5.046875 -36.726562 5.046875 -40.25 C 5.046875 -43.613281 5.910156 -46.601562 7.640625 -49.21875 C 9.378906 -51.832031 11.769531 -53.882812 14.8125 -55.375 C 17.851562 -56.875 21.375 -57.625 25.375 -57.625 C 30.65625 -57.625 34.972656 -56.234375 38.328125 -53.453125 C 41.691406 -50.679688 43.664062 -46.867188 44.25 -42.015625 L 35.140625 -40.5 C 34.015625 -46.039062 30.597656 -48.8125 24.890625 -48.8125 C 22.117188 -48.8125 19.863281 -48.09375 18.125 -46.65625 C 16.394531 -45.21875 15.53125 -43.320312 15.53125 -40.96875 C 15.53125 -38.625 16.378906 -36.820312 18.078125 -35.5625 C 19.785156 -34.3125 22.695312 -33.207031 26.8125 -32.25 C 30.488281 -31.394531 33.660156 -30.394531 36.328125 -29.25 C 38.992188 -28.101562 41.0625 -26.515625 42.53125 -24.484375 C 44 -22.460938 44.734375 -19.691406 44.734375 -16.171875 C 44.734375 -12.859375 43.835938 -9.929688 42.046875 -7.390625 C 40.265625 -4.859375 37.785156 -2.875 34.609375 -1.4375 C 31.441406 0 27.75 0.71875 23.53125 0.71875 Z M 23.53125 0.71875 "/></g></g></g></svg>